<?xml version="1.0" encoding="UTF-8" standalone="no"?><svg width="149.5766mm" height="85.950729mm" viewBox="0 0 40.40868 23.22258" version="1.1" style="background-color:rgb(249, 246, 238)" xmlns="http://www.w3.org/2000/svg" xmlns:svg="http://www.w3.org/2000/svg"><g transform="translate(-56.827224,-61.989026)"><path style="fill:#360f24;stroke:none" d="m 59.991867,66.828375 h 0.799263 v 5.009172 h -0.761367 v -3.496774 l 0.05168,0.220486 -0.726916,2.390898 h -0.427192 l -0.726916,-2.321996 0.0689,-0.289388 v 3.496774 h -0.778592 v -5.009172 h 0.819934 l 0.830268,2.721627 z m 2.289943,0 h 0.599447 l 1.195449,5.009172 h -0.847494 l -0.647679,-3.283178 -0.647678,3.283178 h -0.847494 z m -0.382406,3.431318 h 1.364259 v 0.799262 h -1.364259 z m 2.541435,-3.431318 h 0.671794 l 1.178223,3.341745 -0.09302,0.134359 v -3.476104 h 0.778593 v 5.005727 h -0.678685 l -1.164443,-3.148819 0.08957,-0.137804 v 3.286623 h -0.782037 z m 4.026272,0 h 0.599447 l 1.195449,5.009172 h -0.847494 l -0.647678,-3.283178 -0.647679,3.283178 h -0.847494 z m -0.382406,3.431318 h 1.364259 v 0.799262 h -1.364259 z m 4.766967,-1.126547 v 1.498617 q 0,0.392741 -0.148139,0.675239 -0.144694,0.282498 -0.423747,0.434083 -0.279053,0.148139 -0.668349,0.148139 -0.396186,0 -0.678684,-0.144694 -0.282498,-0.144694 -0.434082,-0.420302 -0.14814,-0.275608 -0.14814,-0.658014 V 68.06861 q 0,-0.403076 0.144694,-0.692464 0.14814,-0.292834 0.427193,-0.444418 0.279052,-0.155029 0.668349,-0.155029 0.382405,0 0.654568,0.148139 0.275608,0.148139 0.420302,0.430637 0.144694,0.282498 0.144694,0.675239 v 0.385851 h -0.8785 v -0.385851 q 0,-0.120578 -0.04134,-0.206706 -0.04134,-0.08957 -0.120578,-0.134358 -0.07579,-0.04823 -0.179145,-0.04823 -0.113689,0 -0.199816,0.05168 -0.08268,0.05168 -0.127469,0.148139 -0.04479,0.09646 -0.04479,0.227376 v 2.597604 q 0,0.106798 0.04479,0.18948 0.04823,0.07924 0.137804,0.124024 0.08957,0.04134 0.210151,0.04134 0.124024,0 0.213596,-0.04479 0.09302,-0.04479 0.141249,-0.130914 0.04823,-0.08613 0.04823,-0.206706 v -0.685574 h -0.420302 v -0.819933 z m 0.536388,-2.304771 h 0.854385 v 5.009172 H 73.38806 Z m 0.378961,4.175459 h 1.846572 v 0.833713 h -1.846572 z m 0,-2.070504 h 1.674318 v 0.830268 h -1.674318 z m 0,-2.104955 h 1.846572 v 0.833714 h -1.846572 z"/><path style="fill:#d12432;stroke:none" d="m 79.373441,71.963905 h -0.854384 l 0.341064,-1.96715 -1.143772,-3.083363 h 0.906061 l 0.513319,1.426271 q 0.18259,0.509874 0.244602,0.740696 0.110243,-0.230822 0.248047,-0.478869 l 0.389296,-0.664904 0.585667,-1.023194 h 0.988743 l -1.898249,3.179825 z m 2.035005,-1.980931 q 0,-0.654568 0.220487,-1.347033 0.279053,-0.888835 0.826823,-1.347033 0.547771,-0.461643 1.267796,-0.461643 0.747586,0 1.2299,0.568441 0.485759,0.568441 0.485759,1.550294 0,0.888835 -0.347955,1.639866 -0.34451,0.751032 -0.857829,1.109322 -0.51332,0.35829 -1.129992,0.35829 -0.737251,0 -1.174779,-0.516765 -0.52021,-0.609782 -0.52021,-1.553739 z m 0.844049,-0.02067 q 0,0.558105 0.272163,0.89228 0.275608,0.330729 0.668349,0.330729 0.316949,0 0.627008,-0.248047 0.310059,-0.248047 0.537435,-0.813043 0.230822,-0.568441 0.230822,-1.154108 0,-0.613227 -0.282498,-0.964627 -0.248047,-0.310059 -0.651124,-0.310059 -0.323839,0 -0.640788,0.251492 -0.316949,0.251493 -0.54088,0.809598 -0.220487,0.554661 -0.220487,1.205785 z m 4.246758,-3.048912 h 0.850939 l -0.468533,2.742298 -0.113688,0.661459 q -0.01378,0.09646 -0.01378,0.172255 0,0.320394 0.186036,0.506429 0.18948,0.186035 0.513319,0.186035 0.285943,0 0.485759,-0.127468 0.199816,-0.127469 0.316949,-0.389297 0.117133,-0.265272 0.241157,-0.988743 l 0.471978,-2.762968 h 0.850939 L 89.34835,69.67636 q -0.144694,0.844049 -0.306614,1.240236 -0.234266,0.571886 -0.633898,0.854384 -0.399631,0.279053 -0.995633,0.279053 -0.692465,0 -1.092096,-0.413412 -0.396186,-0.416857 -0.396186,-1.133437 0,-0.230822 0.120578,-0.930176 z m 4.170967,5.050513 H 89.819281 L 90.684,66.913392 h 1.843127 q 0.509875,0 0.761367,0.134359 0.251492,0.134359 0.406522,0.434082 0.158474,0.299724 0.158474,0.757922 0,0.671794 -0.330729,1.078315 -0.327285,0.403077 -0.943957,0.499539 0.172255,0.189481 0.33762,0.537436 0.275607,0.585666 0.606337,1.60886 h -0.916396 q -0.05512,-0.213596 -0.372071,-1.160998 -0.165365,-0.485758 -0.303168,-0.685574 -0.09991,-0.141249 -0.203261,-0.192926 -0.103353,-0.05168 -0.347955,-0.05168 h -0.3514 z m 0.489204,-2.849095 h 0.451307 q 0.640789,0 0.86472,-0.07924 0.227376,-0.08268 0.375516,-0.299723 0.151584,-0.217041 0.151584,-0.478869 0,-0.285943 -0.18948,-0.416857 -0.110244,-0.08268 -0.482314,-0.08268 H 91.39369 Z"/><path style="fill:#d12432;stroke:none" d="m 61.742895,77.399036 q 0,-0.654569 0.220486,-1.347034 0.279053,-0.888835 0.826824,-1.347033 0.54777,-0.461643 1.267795,-0.461643 0.747587,0 1.2299,0.568441 0.485759,0.568441 0.485759,1.550294 0,0.888835 -0.347955,1.639867 -0.34451,0.751031 -0.857829,1.109321 -0.51332,0.35829 -1.129992,0.35829 -0.737251,0 -1.174778,-0.516764 -0.52021,-0.609783 -0.52021,-1.553739 z m 0.844049,-0.02067 q 0,0.558106 0.272162,0.89228 0.275608,0.33073 0.668349,0.33073 0.316949,0 0.627008,-0.248047 0.310059,-0.248047 0.537435,-0.813043 0.230822,-0.568442 0.230822,-1.154108 0,-0.613228 -0.282498,-0.964628 -0.248047,-0.310058 -0.651123,-0.310058 -0.32384,0 -0.640789,0.251492 -0.316949,0.251492 -0.54088,0.809598 -0.220486,0.55466 -0.220486,1.205784 z m 7.319785,2.001602 h -0.861274 l -0.09302,-3.693145 -1.508953,3.693145 h -0.8785 l -0.155029,-5.050514 h 0.833714 l 0.03445,3.534671 1.422825,-3.534671 h 0.926731 l 0.09302,3.496775 1.364259,-3.496775 h 0.823378 z m 4.825535,0 h -0.795818 l -1.119657,-3.393422 -0.578776,3.393422 h -0.795818 l 0.86472,-5.050514 h 0.795818 l 1.119656,3.379641 0.578777,-3.379641 h 0.795817 z"/><path style="fill:#360f24;stroke:none" d="m 80.169685,74.344633 h 0.799263 v 5.009173 h -0.761366 v -3.496775 l 0.05168,0.220487 -0.726916,2.390897 H 79.10515 l -0.726915,-2.321995 0.0689,-0.289389 v 3.496775 h -0.778592 v -5.009173 h 0.819933 l 0.830268,2.721628 z m 1.404553,0 h 0.854384 v 5.009173 h -0.854384 z m 0.378961,4.175459 h 1.846572 v 0.833714 h -1.846572 z m 0,-2.070504 h 1.674317 v 0.830269 h -1.674317 z m 0,-2.104955 h 1.846572 v 0.833714 h -1.846572 z m 4.780748,0 h 0.799263 v 5.009173 h -0.761367 v -3.496775 l 0.05168,0.220487 -0.726915,2.390897 H 85.669416 L 84.9425,76.14642 85.0114,75.857031 v 3.496775 h -0.778592 v -5.009173 h 0.819933 l 0.830269,2.721628 z m 2.686129,5.060849 q -0.403076,0 -0.692464,-0.137804 Q 88.441669,79.126429 88.290084,78.864602 88.1385,78.599329 88.1385,78.227259 V 75.47118 q 0,-0.37207 0.151584,-0.637343 0.151585,-0.265272 0.437528,-0.403076 0.289388,-0.137804 0.692464,-0.137804 0.403077,0 0.68902,0.137804 0.289388,0.137804 0.440972,0.403076 0.151585,0.265273 0.151585,0.637343 v 2.756079 q 0,0.37207 -0.151585,0.637343 -0.151584,0.261827 -0.440972,0.403076 -0.285943,0.137804 -0.68902,0.137804 z m 0,-0.854384 q 0.130914,0 0.223932,-0.05168 0.09646,-0.05168 0.144694,-0.148139 0.04823,-0.09646 0.04823,-0.234267 V 75.57453 q 0,-0.134358 -0.04823,-0.230821 -0.04823,-0.09646 -0.144694,-0.148139 -0.09302,-0.05168 -0.223932,-0.05168 -0.130913,0 -0.223931,0.05168 -0.09302,0.05168 -0.141249,0.148139 -0.04823,0.09646 -0.04823,0.230821 v 2.542482 q 0,0.137804 0.04823,0.234267 0.04823,0.09646 0.141249,0.148139 0.09302,0.05168 0.223931,0.05168 z m 2.20037,-2.135961 h 0.902615 q 0.110243,0 0.189481,-0.0379 0.08268,-0.04134 0.124023,-0.113688 0.04134,-0.07579 0.04134,-0.179145 v -0.558106 q 0,-0.113688 -0.04134,-0.196371 -0.04134,-0.08268 -0.124023,-0.124023 -0.07924,-0.04479 -0.189481,-0.04479 H 91.620446 V 74.34118 h 0.850939 q 0.406521,0 0.692464,0.134359 0.289389,0.130914 0.440973,0.389296 0.151584,0.254937 0.151584,0.613228 v 0.585666 q 0,0.368626 -0.151584,0.633898 -0.151584,0.261828 -0.440973,0.399632 -0.289388,0.137803 -0.692464,0.137803 H 91.620446 Z M 91.23804,74.341188 h 0.837158 v 5.012618 H 91.23804 Z m 1.078315,2.738853 0.782038,-0.158474 0.799262,2.432239 h -0.916396 z m 3.444052,0.354845 v 1.91892 h -0.854384 v -1.91892 l -0.937067,-3.090253 h 0.888835 l 0.468534,2.073949 0.447862,-2.073949 h 0.888836 z"/><path style="fill:none;stroke:#360f24;stroke-width:0.1" d="M 57.812683,80.61783 H 96.486788"/><path style="fill:none;stroke:#360f24;stroke-width:0.1" d="M 57.599844,65.612487 H 96.645"/><path style="fill:#360f24;stroke:none" d="m 58.070208,65.284637 h -0.35183 V 62.59221 h 0.35183 z m 0.377224,-1.922104 h 0.35183 v 1.922104 h -0.35183 z m 0.822172,0.588853 q 0,-0.148139 -0.05926,-0.220357 -0.0574,-0.07407 -0.175915,-0.07407 -0.118511,0 -0.177767,0.07592 -0.0574,0.07592 -0.0574,0.229615 l -0.03889,-0.275909 q 0.06481,-0.179618 0.177767,-0.268502 0.114807,-0.08888 0.262946,-0.08888 0.203692,0 0.311092,0.133325 0.109253,0.133325 0.109253,0.385162 v 1.436948 H 59.2696 Z m 1.251244,1.34251 q -0.233319,0 -0.342571,-0.12777 -0.109253,-0.12777 -0.109253,-0.381458 v -1.98136 h 0.35183 v 1.98136 q 0,0.08333 0.03518,0.129622 0.03703,0.04629 0.105549,0.04629 h 0.140732 v 0.333313 z M 59.87274,63.362533 h 0.829579 v 0.333313 H 59.87274 Z m 1.136437,0 h 0.35183 v 1.922104 h -0.35183 z m 0.879575,0.318499 q -0.01296,0 -0.02963,0 -0.01481,0 -0.03703,0 -0.214802,0 -0.337017,0.105549 -0.120363,0.103698 -0.124066,0.28702 l -0.03889,-0.375903 q 0.09444,-0.174064 0.240726,-0.270354 0.14814,-0.09814 0.325906,-0.09814 0,0 0,0 0,0 0,0 z m 0.779052,1.631382 q -0.174064,0 -0.299982,-0.06481 -0.124066,-0.06666 -0.190729,-0.190729 -0.06481,-0.125919 -0.06481,-0.301834 v -0.877724 q 0,-0.174063 0.06481,-0.296278 0.06666,-0.124066 0.190729,-0.187025 0.125918,-0.06481 0.299982,-0.06481 0.174063,0 0.296278,0.06481 0.124066,0.06296 0.187025,0.187025 0.06481,0.122215 0.06481,0.296278 v 0.88328 q 0,0.174063 -0.06481,0.298129 -0.06296,0.124067 -0.187025,0.188878 -0.122215,0.06481 -0.296278,0.06481 z m -0.0037,-0.342572 q 0.09444,0 0.146288,-0.0574 0.0537,-0.05926 0.0537,-0.166656 V 63.89213 q 0,-0.103697 -0.0537,-0.161101 -0.05185,-0.05926 -0.146288,-0.05926 -0.09259,0 -0.146287,0.05926 -0.0537,0.0574 -0.0537,0.161101 v 0.853652 q 0,0.105549 0.05185,0.164804 0.0537,0.05926 0.148139,0.05926 z m 1.680848,-2.377632 h 0.35183 v 2.692427 h -0.35183 z m -0.379606,2.725759 q -0.133326,0 -0.229616,-0.06666 -0.09444,-0.06851 -0.144435,-0.196284 -0.05,-0.129622 -0.05,-0.311092 v -0.82032 q 0,-0.187026 0.05,-0.320351 0.05,-0.135177 0.144435,-0.203691 0.09629,-0.07037 0.229616,-0.07037 0.131473,0 0.240726,0.08888 0.109252,0.08888 0.177767,0.249985 l -0.03889,0.274057 q 0,-0.08888 -0.02778,-0.153694 -0.02592,-0.06481 -0.07592,-0.09814 -0.05,-0.03333 -0.122215,-0.03333 -0.105549,0 -0.166657,0.07592 -0.05926,0.07592 -0.05926,0.211098 v 0.785137 q 0,0.124066 0.05926,0.192581 0.06111,0.06851 0.166657,0.06851 0.07222,0 0.122215,-0.03148 0.05,-0.03333 0.07592,-0.09444 0.02778,-0.06296 0.02778,-0.149991 l 0.02592,0.268502 q -0.05185,0.15925 -0.157397,0.248133 -0.10555,0.08703 -0.248133,0.08703 z m 1.916018,-1.955436 h 0.35183 v 1.922104 h -0.35183 z m -0.433307,1.396211 q 0,0.103697 0.05555,0.157398 0.05555,0.0537 0.162952,0.0537 0.107401,0 0.161102,-0.0537 0.0537,-0.05555 0.0537,-0.164805 l 0.02592,0.237022 q -0.05185,0.162953 -0.146287,0.24443 -0.09444,0.07963 -0.235171,0.07963 -0.21295,0 -0.322202,-0.137029 -0.107401,-0.137029 -0.107401,-0.401827 v -1.411025 h 0.35183 z m 1.728994,0.55367 q -0.185174,0 -0.314796,-0.06666 -0.129621,-0.06666 -0.198136,-0.194433 -0.06851,-0.129621 -0.06851,-0.311092 v -0.811061 q 0,-0.190729 0.06851,-0.324054 0.06852,-0.135177 0.198136,-0.205543 0.131474,-0.07037 0.314796,-0.07037 0.185174,0 0.316647,0.07037 0.131474,0.07037 0.199988,0.207395 0.06851,0.135176 0.06851,0.325905 v 0.06296 h -0.348127 v -0.06296 q 0,-0.131473 -0.06111,-0.203691 -0.06111,-0.07222 -0.17036,-0.07222 -0.111104,0 -0.174063,0.07222 -0.06111,0.07037 -0.06111,0.199988 v 0.811061 q 0,0.11666 0.06111,0.181471 0.06296,0.06296 0.174063,0.06296 0.109253,0 0.17036,-0.06666 0.06296,-0.06666 0.06296,-0.185174 v -0.06111 H 67.7659 v 0.06111 q 0,0.183323 -0.07037,0.312944 -0.06851,0.129622 -0.199988,0.198136 -0.131474,0.06852 -0.318499,0.06852 z m 0.873489,-2.696131 h 0.351831 v 0.35183 H 68.05054 Z m 0,0.74625 h 0.351831 v 1.922104 H 68.05054 Z m 0.747572,0 h 0.35183 v 1.922104 h -0.35183 z m 0.822172,0.588853 q 0,-0.148139 -0.05926,-0.220357 -0.0574,-0.07407 -0.175915,-0.07407 -0.118511,0 -0.177767,0.07592 -0.0574,0.07592 -0.0574,0.229615 l -0.03889,-0.275909 q 0.06481,-0.179618 0.177766,-0.268502 0.114808,-0.08888 0.262947,-0.08888 0.203692,0 0.311092,0.133325 0.109253,0.133325 0.109253,0.385162 v 1.436948 h -0.35183 z m 1.284576,2.114685 q -0.268502,0 -0.41479,-0.144436 -0.146287,-0.142583 -0.146287,-0.401827 v -0.04629 h 0.349979 v 0.04629 q 0,0.112956 0.05925,0.174064 0.05926,0.06296 0.164805,0.06296 0.105549,0 0.162953,-0.06111 0.05926,-0.06111 0.05926,-0.172211 v -2.160979 h 0.349979 v 2.160979 q 0,0.172211 -0.06851,0.292574 -0.06852,0.122215 -0.199988,0.185174 -0.131473,0.06481 -0.316647,0.06481 z m -0.146288,-0.748102 q -0.133325,0 -0.229615,-0.06666 -0.09444,-0.06851 -0.144436,-0.196284 -0.05,-0.129622 -0.05,-0.311092 v -0.82032 q 0,-0.187026 0.05,-0.320351 0.05,-0.135177 0.144436,-0.203691 0.09629,-0.07037 0.229615,-0.07037 0.131474,0 0.240726,0.08888 0.111105,0.08888 0.179619,0.249985 l -0.03889,0.262947 q 0,-0.08888 -0.02778,-0.151843 -0.02592,-0.06481 -0.07777,-0.09814 -0.05,-0.03518 -0.122214,-0.03518 -0.107401,0 -0.168509,0.07592 -0.05925,0.07592 -0.05925,0.211098 v 0.807358 q 0,0.124067 0.05925,0.192581 0.06111,0.06851 0.168509,0.06851 0.07222,0 0.122214,-0.03148 0.05185,-0.03333 0.07777,-0.09444 0.02778,-0.06296 0.02778,-0.149991 l 0.02593,0.257392 q -0.05185,0.15925 -0.15925,0.248133 -0.105549,0.08703 -0.248133,0.08703 z"/><path style="fill:#360f24;stroke:none" d="m 86.417326,83.838247 q -0.135176,0 -0.237021,-0.08703 -0.09999,-0.08703 -0.142584,-0.242577 l 0.02592,-0.298129 q 0,0.09629 0.02593,0.164804 0.02778,0.06851 0.07777,0.105549 0.05,0.03518 0.122215,0.03518 0.105549,0 0.164804,-0.08148 0.06111,-0.08333 0.06111,-0.231467 v -0.722176 q 0,-0.142583 -0.06111,-0.222208 -0.05926,-0.08148 -0.164804,-0.08148 -0.07222,0 -0.122215,0.03518 -0.05,0.03518 -0.07777,0.101845 -0.02593,0.06666 -0.02593,0.159249 l -0.03889,-0.26665 q 0.06111,-0.166656 0.170359,-0.259242 0.109253,-0.09259 0.240726,-0.09259 0.137028,0 0.233318,0.07222 0.09814,0.07037 0.148139,0.207394 0.05,0.137028 0.05,0.33146 v 0.749952 q 0,0.198136 -0.0537,0.337016 -0.05185,0.13888 -0.153694,0.212949 -0.09999,0.07222 -0.242577,0.07222 z m -0.70551,-2.720197 h 0.351829 v 2.692421 h -0.351829 z m 2.627079,0.770321 -0.577741,2.372071 q -0.02963,0.118511 -0.09999,0.196284 -0.06851,0.07777 -0.18147,0.116659 -0.112956,0.03889 -0.270353,0.03889 h -0.05185 v -0.333312 h 0.05185 q 0.129621,0 0.201839,-0.05555 0.07222,-0.0537 0.09629,-0.166656 l 0.475895,-2.16838 z m -1.312879,0 h 0.355533 l 0.412936,1.661005 -0.177766,0.412937 z m 2.654325,1.949876 q -0.168508,0 -0.30924,-0.07222 -0.140732,-0.07222 -0.229615,-0.203691 l 0.272205,-0.216653 q 0.0537,0.07037 0.12777,0.111104 0.07407,0.03889 0.155545,0.03889 0.109253,0 0.17036,-0.07222 0.06111,-0.07222 0.06111,-0.201839 V 81.11805 h 0.351829 v 2.11468 q 0,0.190728 -0.07037,0.327757 -0.07036,0.135176 -0.205542,0.207394 -0.133325,0.07037 -0.324053,0.07037 z m 1.564184,0 q -0.287019,0 -0.444416,-0.161101 -0.157398,-0.161101 -0.157398,-0.455527 v -1.514718 q 0,-0.294425 0.157398,-0.455526 0.157397,-0.161101 0.444416,-0.161101 0.287019,0 0.444416,0.161101 0.157397,0.161101 0.157397,0.455526 v 1.514718 q 0,0.294426 -0.157397,0.455527 -0.157397,0.161101 -0.444416,0.161101 z m 0,-0.333312 q 0.118511,0 0.183321,-0.07407 0.06666,-0.07407 0.06666,-0.209246 v -1.514718 q 0,-0.135176 -0.06666,-0.209245 -0.06481,-0.07407 -0.183321,-0.07407 -0.118511,0 -0.185174,0.07407 -0.06481,0.07407 -0.06481,0.209245 v 1.514718 q 0,0.135177 0.06481,0.209246 0.06666,0.07407 0.185174,0.07407 z m 1.091992,-1.166592 h 0.496265 q 0.09444,0 0.1611,-0.03518 0.06851,-0.03518 0.103697,-0.101846 0.03518,-0.06666 0.03518,-0.161101 V 81.76616 q 0,-0.09999 -0.03518,-0.17036 -0.03518,-0.07222 -0.103697,-0.109252 -0.06666,-0.03704 -0.1611,-0.03704 h -0.496265 v -0.333312 h 0.464785 q 0.214801,0 0.368495,0.07222 0.153694,0.07037 0.233318,0.209246 0.08148,0.137028 0.08148,0.329608 v 0.314795 q 0,0.198136 -0.08148,0.340719 -0.07962,0.140732 -0.233318,0.214801 -0.153694,0.07407 -0.368495,0.07407 h -0.464785 z m -0.164804,-1.222145 h 0.351829 v 2.694273 h -0.351829 z m 0.627737,1.472129 0.331461,-0.08518 0.429602,1.307324 h -0.385161 z m 1.604923,1.24992 q -0.287019,0 -0.444416,-0.161101 -0.157398,-0.161101 -0.157398,-0.455527 v -1.514718 q 0,-0.294425 0.157398,-0.455526 0.157397,-0.161101 0.444416,-0.161101 0.287018,0 0.444416,0.161101 0.157397,0.161101 0.157397,0.455526 v 1.514718 q 0,0.294426 -0.157397,0.455527 -0.157398,0.161101 -0.444416,0.161101 z m 0,-0.333312 q 0.118511,0 0.183321,-0.07407 0.06666,-0.07407 0.06666,-0.209246 v -1.514718 q 0,-0.135176 -0.06666,-0.209245 -0.06481,-0.07407 -0.183321,-0.07407 -0.118511,0 -0.185174,0.07407 -0.06481,0.07407 -0.06481,0.209245 v 1.514718 q 0,0.135177 0.06481,0.209246 0.06666,0.07407 0.185174,0.07407 z m 1.482707,0.333312 q -0.196284,0 -0.333312,-0.07222 -0.137028,-0.07407 -0.207394,-0.214801 -0.07037,-0.142584 -0.07037,-0.346274 V 81.11805 h 0.351829 v 2.101718 q 0,0.133324 0.06666,0.205542 0.06666,0.07037 0.19258,0.07037 0.12777,0 0.194432,-0.07037 0.06851,-0.07222 0.06851,-0.205542 V 81.11805 h 0.35183 v 2.086904 q 0,0.20369 -0.07222,0.346274 -0.07037,0.140732 -0.207394,0.214801 -0.137028,0.07222 -0.335164,0.07222 z"/></g></svg>